<svg xmlns="http://www.w3.org/2000/svg" fill-rule="evenodd" stroke-linejoin="round" stroke-miterlimit="1.41421" clip-rule="evenodd" viewBox="0 0 1027 252">
  <path fill="url(#_Linear1)" d="M1027 0v252H0V5.701C13.354 16.78 29.257 22.327 45.663 26.867c10.256 2.838 20.477 5.826 30.634 9.004 19.795 6.192 37.137 16.503 51.324 31.724 9.454 10.143 18.594 20.578 27.861 30.893 21.163 23.555 46.665 40.105 78.568 43.226 17.628 1.724 35.719.454 53.46-1.088 34.771-3.02 68.754-.952 101.633 11.599 15.447 5.898 30.886 11.82 46.242 17.949 39.065 15.591 79.326 18.573 120.446 11.153 23.924-4.318 45.398-15.245 66.153-27.232 35.755-20.647 73.92-27.567 114.74-23.479 21.713 2.175 43.592 3.845 65.389 3.765 28.682-.106 54.981-8.869 77.729-27.004 14.261-11.368 25.876-25.125 36.305-39.936 8.633-12.259 19.683-21.7 33.241-27.893 9.141-4.174 18.601-7.772 28.162-10.875C996.143 22.639 1014.261 16.015 1027 0z"/>
  <defs>
    <linearGradient id="_Linear1" x2="1" gradientTransform="matrix(0 199.414 -199.414 0 513.5 52.5859)" gradientUnits="userSpaceOnUse">
      <stop offset="0" stop-color="#f5f6f9"/>
      <stop offset="1" stop-color="#fff"/>
    </linearGradient>
  </defs>
</svg>
