<svg xmlns="http://www.w3.org/2000/svg" xmlns:xlink="http://www.w3.org/1999/xlink" fill-rule="evenodd" stroke-linejoin="round" stroke-miterlimit="1.41421" clip-rule="evenodd" viewBox="0 0 512 512">
  <linearGradient id="a">
    <stop offset="0" stop-color="#0385a7"/>
    <stop offset="1" stop-color="#090795"/>
  </linearGradient>
  <linearGradient id="b" x2="1" gradientTransform="matrix(73.5103 -206.786 206.786 73.5103 130.004 304.22)" gradientUnits="userSpaceOnUse" xlink:href="#a"/>
  <linearGradient id="c" x2="1" gradientTransform="matrix(58.4247 -164.35 164.35 58.4247 3895.46 1671.38)" gradientUnits="userSpaceOnUse" xlink:href="#a"/>
  <linearGradient id="d" x2="1" gradientTransform="matrix(48.1001 -135.306 135.306 48.1001 21176.8 7845.75)" gradientUnits="userSpaceOnUse" xlink:href="#a"/>
  <linearGradient id="e" x2="1" gradientTransform="matrix(52.2216 -146.9 146.9 52.2216 27638.3 10184.6)" gradientUnits="userSpaceOnUse" xlink:href="#a"/>
  <g fill-rule="nonzero">
    <path fill="url(#b)" d="M81.814 183.715c-10.059 33.837.958 99.777 38.173 116.944-18.57-25.306-32.751-79.573-2.687-130.911 55.351-83.698 163.192-32.563 163.192-32.563-34.506-27.835-64.982-38.278-91.075-38.279-63.011-.004-100.489 60.881-107.603 84.809z"/>
    <path fill="url(#c)" d="M35.805 254.982c45.631 95.967 132.897 74.809 132.897 74.809C11.802 311.428 46.89 154.563 79.365 129.68c-44.575 28.457-53.837 96.051-43.56 125.302z"/>
    <path fill="url(#d)" d="M226.66 331.159c-18.024 6.871-36.992 11.079-56.267 11.796-49.717 1.845-99.363-10.967-114.404-25.665 0 0 35.296 69.649 164.731 37.884 167.231-43.925 242.226-8.404 259.28 4.551-14.34-24.224-53.392-55.579-124.685-55.581-34.875 0-77.464 7.504-128.655 27.015z"/>
    <path fill="url(#e)" d="M269.367 374.946c-47.407 16.506-95.138 33.012-147.294 27.86 55.318 21.635 132.796 5.859 179.313-16.986 78.079-31.314 156.958-28.872 156.958-28.872-21.661-7.7-42.515-10.823-62.822-10.824-43.629-.001-84.766 14.41-126.155 28.822z"/>
  </g>
</svg>
