<svg xmlns="http://www.w3.org/2000/svg" fill-rule="evenodd" stroke-linejoin="round" stroke-miterlimit="1.41421" clip-rule="evenodd" viewBox="0 0 607 237">
  <path fill="url(#_Linear1)" fill-rule="nonzero" d="M37.548 63.927c-7.582 25.505.722 75.209 28.774 88.149-13.998-19.075-24.687-59.98-2.026-98.677 41.722-63.089 123.01-24.545 123.01-24.545C161.296 7.873 138.324.001 118.656 0 71.16-.003 42.91 45.891 37.548 63.927z"/>
  <path fill="url(#_Linear2)" fill-rule="nonzero" d="M2.868 117.646c34.395 72.337 100.174 56.389 100.174 56.389-118.267-13.842-91.819-132.082-67.34-150.838-33.599 21.45-40.581 72.4-32.834 94.449z"/>
  <path fill="url(#_Linear3)" fill-rule="nonzero" d="M146.729 175.066c-13.586 5.179-27.884 8.351-42.413 8.891-37.475 1.391-74.897-8.266-86.234-19.345 0 0 26.605 52.499 124.169 28.556 126.054-33.11 182.583-6.335 195.438 3.43-10.809-18.259-40.245-41.894-93.984-41.895-26.288 0-58.39 5.656-96.976 20.363z"/>
  <path fill="url(#_Linear4)" fill-rule="nonzero" d="M178.92 208.071c-35.734 12.442-71.712 24.884-111.026 21 41.697 16.308 100.098 4.417 135.161-12.803 58.854-23.604 118.31-21.763 118.31-21.763-16.327-5.804-32.046-8.158-47.353-8.159-32.886-.001-63.894 10.862-95.092 21.725z"/>
  <path fill="#0474a5" fill-rule="nonzero" d="M113.196 114.784v-6.779h16.249c2.329 0 4.199-.804 5.608-2.411 1.41-1.608 2.115-3.716 2.115-6.325 0-2.656-.705-4.788-2.115-6.395-1.409-1.608-3.279-2.411-5.608-2.411h-16.249v-6.779H129.2c3.052 0 5.725.646 8.02 1.939 2.294 1.293 4.077 3.11 5.347 5.452 1.269 2.341 1.904 5.072 1.904 8.194 0 3.122-.635 5.848-1.904 8.177-1.27 2.33-3.053 4.135-5.347 5.416-2.295 1.281-4.968 1.922-8.02 1.922h-16.004zm-3.669-31.1h7.128v50.809h-7.128V83.684zM157.121 127.713h29.074v6.779h-29.074v-6.779zm-3.564-44.029h7.128v50.809h-7.128V83.684zM211.704 135.017c-5.661 0-10.046-1.647-13.157-4.944-3.11-3.297-4.665-7.95-4.665-13.96V83.684h7.129v32.673c0 3.704.932 6.57 2.796 8.597 1.863 2.026 4.495 3.04 7.897 3.04 3.424 0 6.074-1.014 7.95-3.04 1.875-2.027 2.813-4.893 2.813-8.597V83.684h7.128v32.429c0 6.01-1.561 10.663-4.682 13.96-3.122 3.297-7.525 4.944-13.209 4.944M241.476 134.457V83.684h6.464l24.846 38.927-.839.908V83.684h7.059v50.773h-6.535l-24.775-38.333.839-.909v39.242h-7.059zM308.709 107.131h17.611v8.876c0 3.821-.739 7.158-2.218 10.011-1.48 2.854-3.553 5.067-6.22 6.64-2.668 1.572-5.783 2.358-9.348 2.358-3.611 0-6.767-.739-9.47-2.218-2.703-1.48-4.799-3.559-6.29-6.238-1.491-2.679-2.236-5.824-2.236-9.435v-14.991c0-3.82.739-7.151 2.219-9.994 1.478-2.842 3.547-5.05 6.202-6.622 2.656-1.573 5.777-2.359 9.365-2.359 2.958 0 5.656.629 8.09 1.888 2.434 1.257 4.479 3.017 6.133 5.276 1.653 2.26 2.771 4.904 3.354 7.933h-7.722c-.653-2.633-1.922-4.648-3.809-6.046-1.888-1.398-3.902-2.097-6.046-2.097-3.168 0-5.708 1.101-7.618 3.303-1.91 2.201-2.865 5.108-2.865 8.718v14.991c0 3.308.978 5.958 2.935 7.95s4.543 2.988 7.758 2.988c3.168 0 5.707-1.049 7.617-3.145 1.911-2.097 2.867-5.02 2.867-8.771v-2.202l-10.309-.035v-6.779zM341.311 127.713h29.179v6.779h-29.179v-6.779zm0-21.84h25.335v6.779h-25.335v-6.779zm0-22.189h29.179v6.779h-29.179v-6.779zm-3.459 0h7.128v50.809h-7.128V83.684zM396.523 114.784v-6.779h16.249c2.328 0 4.199-.804 5.607-2.411 1.411-1.608 2.116-3.716 2.116-6.325 0-2.656-.705-4.788-2.116-6.395-1.408-1.608-3.279-2.411-5.607-2.411h-16.249v-6.779h16.005c3.051 0 5.724.646 8.019 1.939 2.293 1.293 4.077 3.11 5.346 5.452 1.27 2.341 1.904 5.072 1.904 8.194 0 3.122-.634 5.848-1.904 8.177-1.269 2.33-3.053 4.135-5.346 5.416-2.295 1.281-4.968 1.922-8.019 1.922h-16.005zm-3.669-31.1h7.128v50.809h-7.128V83.684zM452.294 127.993c3.191 0 5.749-1.048 7.671-3.145 1.922-2.097 2.883-4.869 2.883-8.317v-14.886c0-3.447-.961-6.22-2.883-8.317-1.922-2.096-4.48-3.145-7.671-3.145s-5.748 1.049-7.67 3.145c-1.922 2.097-2.883 4.87-2.883 8.317v14.886c0 3.448.961 6.22 2.883 8.317 1.922 2.097 4.479 3.145 7.67 3.145m0 7.023c-3.587 0-6.721-.773-9.399-2.323-2.68-1.549-4.759-3.733-6.238-6.552-1.48-2.818-2.219-6.104-2.219-9.855v-14.397c0-3.75.739-7.035 2.219-9.854 1.479-2.818 3.558-5.002 6.238-6.552 2.678-1.549 5.812-2.323 9.399-2.323 3.588 0 6.721.774 9.4 2.323 2.679 1.55 4.758 3.734 6.238 6.552 1.479 2.819 2.218 6.104 2.218 9.854v14.397c0 3.751-.739 7.037-2.218 9.855-1.48 2.819-3.559 5.003-6.238 6.552-2.679 1.55-5.812 2.323-9.4 2.323M498.489 127.993c3.191 0 5.749-1.048 7.671-3.145 1.922-2.097 2.883-4.869 2.883-8.317v-14.886c0-3.447-.961-6.22-2.883-8.317-1.922-2.096-4.48-3.145-7.671-3.145s-5.748 1.049-7.67 3.145c-1.922 2.097-2.883 4.87-2.883 8.317v14.886c0 3.448.961 6.22 2.883 8.317 1.922 2.097 4.479 3.145 7.67 3.145m0 7.023c-3.587 0-6.721-.773-9.399-2.323-2.68-1.549-4.759-3.733-6.238-6.552-1.48-2.818-2.219-6.104-2.219-9.855v-14.397c0-3.75.739-7.035 2.219-9.854 1.479-2.818 3.558-5.002 6.238-6.552 2.678-1.549 5.812-2.323 9.399-2.323 3.588 0 6.721.774 9.4 2.323 2.679 1.55 4.758 3.734 6.238 6.552 1.479 2.819 2.218 6.104 2.218 9.854v14.397c0 3.751-.739 7.037-2.218 9.855-1.48 2.819-3.559 5.003-6.238 6.552-2.679 1.55-5.812 2.323-9.4 2.323M531.442 127.713h29.073v6.779h-29.073v-6.779zm-3.565-44.029h7.129v50.809h-7.129V83.684z"/>
  <path fill="#090d96" fill-rule="nonzero" d="M124.256 65.447l9.163-20.601h4.099v31.202h-4.271v-23.37l.215 1.374-7.683 17.661h-3.047l-7.682-17.232.214-1.803v23.37h-4.27V44.846h4.099l9.163 20.601z"/>
  <path fill="#090d96" d="M145.243 44.846h4.377v31.201h-4.377z"/>
  <path fill="#090d96" fill-rule="nonzero" d="M160.306 76.047v-4.163h7.061c2.302 0 4.087-.597 5.353-1.792 1.267-1.194 1.899-2.879 1.899-5.054v-9.183c0-2.175-.632-3.86-1.899-5.054-1.266-1.194-3.051-1.792-5.353-1.792h-7.061v-4.163h6.932c3.776 0 6.698.976 8.765 2.929 2.068 1.953 3.101 4.703 3.101 8.251v8.841c0 3.548-1.037 6.298-3.111 8.251-2.075 1.952-5 2.929-8.777 2.929h-6.91zm-2.961-31.201h4.377v31.201h-4.377V44.846zM203.911 76.369c-2.175 0-4.077-.483-5.708-1.448-1.631-.966-2.897-2.322-3.799-4.068-.9-1.745-1.351-3.783-1.351-6.115v-8.562c0-2.346.451-4.392 1.351-6.137.902-1.746 2.168-3.102 3.799-4.067 1.631-.965 3.533-1.449 5.708-1.449 1.803 0 3.451.387 4.946 1.159 1.495.773 2.747 1.853 3.756 3.241 1.008 1.387 1.692 3.011 2.049 4.871h-4.484c-.273-1.001-.727-1.878-1.364-2.629-.636-.751-1.383-1.334-2.242-1.749-.858-.414-1.746-.622-2.661-.622-1.917 0-3.459.676-4.624 2.028-1.167 1.352-1.749 3.137-1.749 5.354v8.562c0 2.218.582 3.999 1.749 5.343 1.165 1.346 2.707 2.017 4.624 2.017 1.359 0 2.64-.393 3.841-1.18 1.202-.786 2.01-1.916 2.426-3.39h4.484c-.357 1.774-1.044 3.322-2.06 4.646-1.016 1.323-2.267 2.353-3.755 3.09-1.489.737-3.133 1.105-4.936 1.105M231.208 72.056c1.96 0 3.53-.644 4.71-1.932 1.181-1.287 1.77-2.989 1.77-5.106v-9.142c0-2.117-.589-3.82-1.77-5.107-1.18-1.288-2.75-1.932-4.71-1.932s-3.53.644-4.71 1.932c-1.181 1.287-1.77 2.99-1.77 5.107v9.142c0 2.117.589 3.819 1.77 5.106 1.18 1.288 2.75 1.932 4.71 1.932m0 4.313c-2.203 0-4.128-.475-5.772-1.426-1.646-.951-2.922-2.293-3.832-4.025-.908-1.73-1.362-3.748-1.362-6.05v-8.842c0-2.303.454-4.321 1.362-6.051.91-1.731 2.186-3.072 3.832-4.024 1.644-.952 3.569-1.427 5.772-1.427 2.203 0 4.127.475 5.772 1.427 1.645.952 2.922 2.293 3.831 4.024.908 1.73 1.363 3.748 1.363 6.051v8.842c0 2.302-.455 4.32-1.363 6.05-.909 1.732-2.186 3.074-3.831 4.025-1.645.951-3.569 1.426-5.772 1.426M250.907 65.038h16.416v4.163h-16.416v-4.163zm-5.301 11.009l11.502-31.201h3.734l11.502 31.201h-4.721l-8.648-25.171-8.648 25.171h-4.721zM286.443 76.369c-2.261 0-4.331-.322-6.212-.966-1.882-.643-3.581-1.609-5.097-2.896l2.725-3.348c1.188 1.029 2.497 1.802 3.928 2.317 1.429.515 2.982.773 4.656.773 2.261 0 4.013-.419 5.258-1.256 1.244-.837 1.866-2.02 1.866-3.551v-.021c0-1.188-.314-2.096-.943-2.726-.63-.63-1.456-1.097-2.479-1.405-1.023-.308-2.142-.562-3.358-.762-1.159-.215-2.336-.458-3.531-.73-1.194-.272-2.292-.694-3.293-1.266-1.002-.572-1.811-1.398-2.425-2.478-.616-1.081-.923-2.536-.923-4.368v-.021c0-2.904.966-5.153 2.896-6.749 1.932-1.595 4.658-2.393 8.177-2.393 1.674 0 3.312.269 4.914.805 1.602.537 3.161 1.355 4.678 2.457l-2.489 3.477c-2.361-1.746-4.729-2.619-7.103-2.619-2.132 0-3.788.426-4.968 1.278-1.18.85-1.77 2.056-1.77 3.615v.021c0 1.174.343 2.065 1.029 2.672.688.609 1.585 1.063 2.693 1.363 1.109.3 2.3.58 3.574.837 1.144.229 2.289.504 3.433.826 1.145.322 2.185.787 3.122 1.395.937.609 1.688 1.442 2.253 2.5.566 1.059.848 2.44.848 4.142v.043c0 2.875-1.001 5.099-3.004 6.674-2.003 1.573-4.821 2.36-8.455 2.36"/>
  <path fill="#0474a5" fill-rule="nonzero" d="M587.905 135.087c-3.616 0-6.927-.515-9.936-1.545-3.01-1.029-5.727-2.574-8.152-4.633l4.358-5.354c1.9 1.646 3.994 2.882 6.283 3.707 2.286.823 4.77 1.235 7.447 1.235 3.616 0 6.418-.67 8.41-2.009 1.99-1.338 2.984-3.231 2.984-5.679v-.034c0-1.9-.502-3.352-1.508-4.36-1.008-1.007-2.329-1.755-3.965-2.247-1.637-.492-3.427-.898-5.371-1.219-1.854-.343-3.736-.732-5.647-1.168-1.91-.434-3.667-1.109-5.268-2.024-1.603-.916-2.896-2.237-3.879-3.965-.984-1.727-1.476-4.054-1.476-6.985v-.034c0-4.645 1.545-8.242 4.633-10.795 3.09-2.55 7.449-3.827 13.078-3.827 2.678 0 5.297.43 7.86 1.288 2.562.859 5.056 2.168 7.482 3.929l-3.981 5.561c-3.776-2.791-7.563-4.188-11.361-4.188-3.409 0-6.058.681-7.945 2.043-1.889 1.361-2.832 3.29-2.832 5.783v.034c0 1.878.548 3.302 1.646 4.274 1.1.973 2.535 1.699 4.308 2.179 1.773.481 3.679.927 5.715 1.338 1.831.367 3.662.808 5.492 1.322 1.831.515 3.494 1.259 4.994 2.232 1.498.973 2.699 2.305 3.603 3.998.905 1.693 1.356 3.902 1.356 6.625v.068c0 4.599-1.601 8.157-4.805 10.675-3.203 2.516-7.711 3.775-13.523 3.775"/>
  <path fill="#090d96" fill-rule="nonzero" d="M308.654 47.4h4.378v28.647h-4.378V47.4zm-8.82-2.554h22.017v4.163h-22.017v-4.163z"/>
  <defs>
    <linearGradient id="_Linear1" x2="1" gradientTransform="matrix(55.4099 -155.869 155.869 55.4099 73.8719 154.76)" gradientUnits="userSpaceOnUse">
      <stop offset="0" stop-color="#0385a7"/>
      <stop offset="1" stop-color="#090795"/>
    </linearGradient>
    <linearGradient id="_Linear2" x2="1" gradientTransform="matrix(44.0388 -123.882 123.882 44.0388 38.4691 163.718)" gradientUnits="userSpaceOnUse">
      <stop offset="0" stop-color="#0385a7"/>
      <stop offset="1" stop-color="#090795"/>
    </linearGradient>
    <linearGradient id="_Linear3" x2="1" gradientTransform="rotate(-70.4302 243.287983 1.69865594) scale(108.2427)" gradientUnits="userSpaceOnUse">
      <stop offset="0" stop-color="#0385a7"/>
      <stop offset="1" stop-color="#090795"/>
    </linearGradient>
    <linearGradient id="_Linear4" x2="1" gradientTransform="matrix(39.3631 -110.729 110.729 39.3631 174.94 267.174)" gradientUnits="userSpaceOnUse">
      <stop offset="0" stop-color="#0385a7"/>
      <stop offset="1" stop-color="#090795"/>
    </linearGradient>
  </defs>
</svg>
